<svg width="420" height="420" viewBox="0 0 420 420" fill="none" xmlns="http://www.w3.org/2000/svg">
<rect width="420" height="420" fill="black"/>
<path d="M51.125 156.5H62.125L62.875 157.25V180.75L62.125 181.5L62.875 182.25L63.625 181.5H99.625L100.375 182.25V193.25L99.625 194H63.625L62.875 193.25L62.125 194L62.875 194.75V230.75L62.125 231.5L62.875 232.25L63.625 231.5H99.625L100.375 232.25V243.25L99.625 244H51.125L50.375 243.25V157.25L51.125 156.5ZM101.125 194H112.125L112.875 194.75V230.75L112.125 231.5H101.125L100.375 230.75V194.75L101.125 194ZM127.424 181.5H163.424L164.174 182.25V193.25L163.424 194H127.424L126.674 193.25V182.25L127.424 181.5ZM164.924 194H175.924L176.674 194.75V218.25L175.924 219H127.424L126.674 218.25L125.924 219L126.674 219.75V230.75L125.924 231.5H114.924L114.174 230.75V194.75L114.924 194H125.924L126.674 194.75V205.75L125.924 206.5L126.674 207.25L127.424 206.5H163.424L164.174 207.25L164.924 206.5L164.174 205.75V194.75L164.924 194ZM127.424 231.5H169.674L170.424 232.25V243.25L169.674 244H127.424L126.674 243.25V232.25L127.424 231.5ZM227.223 194H184.973L184.223 193.25V182.25L184.973 181.5H227.223L227.973 182.25V193.25L227.223 194ZM190.473 243.25V232.25L191.223 231.5H227.223L227.973 232.25L228.723 231.5L227.973 230.75V219.75L228.723 219L227.973 218.25L227.223 219H191.223L190.473 218.25V207.25L191.223 206.5H227.223L227.973 207.25L228.723 206.5L227.973 205.75V194.75L228.723 194H239.723L240.473 194.75V243.25L239.723 244H191.223L190.473 243.25ZM190.473 219.75V230.75L189.723 231.5H178.723L177.973 230.75V219.75L178.723 219H189.723L190.473 219.75ZM292.521 181.5H303.521L304.271 182.25V243.25L303.521 244H255.021L254.271 243.25V232.25L255.021 231.5H291.021L291.771 232.25L292.521 231.5L291.771 230.75V182.25L292.521 181.5ZM242.521 181.5H253.521L254.271 182.25V230.75L253.521 231.5H242.521L241.771 230.75V182.25L242.521 181.5ZM318.82 169H329.82L330.57 169.75V180.75L329.82 181.5L330.57 182.25L331.32 181.5H361.07L361.82 182.25V193.25L361.07 194H331.32L330.57 193.25L329.82 194L330.57 194.75V230.75L329.82 231.5H318.82L318.07 230.75V194.75L318.82 194L318.07 193.25L317.32 194H306.32L305.57 193.25V182.25L306.32 181.5H317.32L318.07 182.25L318.82 181.5L318.07 180.75V169.75L318.82 169ZM356.32 219H367.32L368.07 219.75V230.75L367.32 231.5H356.32L355.57 230.75V219.75L356.32 219ZM331.32 231.5H354.82L355.57 232.25V243.25L354.82 244H331.32L330.57 243.25V232.25L331.32 231.5Z" fill="white"/>
</svg>
